<svg width="38" height="38" fill="none" xmlns="http://www.w3.org/2000/svg"><path d="M31.653 17.408h3.166c0-8.119-6.13-14.242-14.26-14.242V6.33c6.429 0 11.094 4.658 11.094 11.077Z" fill="#fff"/><path d="M20.574 12.662c3.328 0 4.748 1.42 4.748 4.748h3.165c0-5.104-2.81-7.914-7.913-7.914v3.166Zm5.416 8.614a1.585 1.585 0 0 0-2.202.069l-3.787 3.895c-.912-.175-2.745-.746-4.631-2.628-1.887-1.888-2.458-3.725-2.628-4.63l3.892-3.79a1.583 1.583 0 0 0 .068-2.201l-5.848-6.43a1.583 1.583 0 0 0-2.201-.139L5.218 8.368c-.273.274-.437.64-.459 1.027-.024.396-.476 9.768 6.792 17.04 6.34 6.338 14.282 6.802 16.47 6.802.319 0 .515-.01.567-.013a1.57 1.57 0 0 0 1.026-.46l2.944-3.436a1.583 1.583 0 0 0-.136-2.202l-6.432-5.85Z" fill="#fff"/></svg>