<svg width="24" height="24" fill="none" xmlns="http://www.w3.org/2000/svg"><path d="M19.998 10.999h2c0-5.13-3.873-8.999-9.01-8.999v2c4.062 0 7.01 2.943 7.01 6.999Z" fill="#fff"/><path d="M13 8c2.103 0 3 .897 3 3h2c0-3.225-1.775-5-5-5v2Zm3.422 5.443a1.001 1.001 0 0 0-1.39.043l-2.394 2.461c-.576-.11-1.734-.47-2.926-1.66-1.192-1.193-1.553-2.354-1.66-2.926l2.46-2.394a1 1 0 0 0 .042-1.39L6.86 3.512a1 1 0 0 0-1.39-.087L3.3 5.286a1 1 0 0 0-.29.65c-.016.25-.302 6.171 4.29 10.765C11.305 20.707 16.323 21 17.705 21c.202 0 .326-.006.36-.008a.991.991 0 0 0 .647-.29l1.86-2.172a1 1 0 0 0-.086-1.39l-4.064-3.697Z" fill="#fff"/></svg>