<svg width="37" height="38" fill="none" xmlns="http://www.w3.org/2000/svg"><g clip-path="url(#a)"><path d="M36.4 18.891c0-10.051-8.148-18.2-18.2-18.2S0 8.84 0 18.891c0 9.084 6.655 16.614 15.356 17.98v-12.72h-4.62v-5.26h4.62v-4.01c0-4.562 2.717-7.081 6.875-7.081 1.99 0 4.074.355 4.074.355v4.48H24.01c-2.261 0-2.966 1.402-2.966 2.843v3.412h5.047l-.806 5.261h-4.241V36.87c8.7-1.365 15.356-8.895 15.356-17.979Z" fill="#fff"/></g><defs><clipPath id="a"><path fill="#fff" transform="translate(0 .691)" d="M0 0h36.4v36.4H0z"/></clipPath></defs></svg>