<svg width="240" height="77" fill="none" xmlns="http://www.w3.org/2000/svg"><path d="M161.753 9.799c3.551-3.924 7.475-7.002 12.558-7.246 2.451-.12 4.517 1.07 6.442 2.794.519.464 1.489.625 2.137.427 3.319-1.02 6.568-2.376 9.915-3.24 1.316-.34 2.812.28 4.23.46 1.756 2.546 3.449 3.014 6.191 1.227 3.724-2.43 7.939-3.386 12.315-2.15 2.247.634 3.877 2.03 4.867 4.259 3.06-1.231 6.061-2.72 9.188-3.625 3.021-.878 6.167-1.158 9.263-1.705l.141.956c-1.017.206-2.05.354-3.052.638-4.101 1.154-8.21 2.284-12.288 3.548-1.916.597-2.686 1.984-2.486 4.562.33 4.209-.534 8.174-3.308 11.244-1.37 1.52-3.488 2.109-4.458 1.263-1.1-.96-1.56-3.722-.542-5.504a84.404 84.404 0 0 1 5.413-8.294c1.32-1.783 1.481-2.913-.145-4.48-3.123-3.01-6.733-2.656-10.261-1.535-2.494.79-4.851 2.174-7.416 3.36.365 1.41.73 2.526.939 3.68 1.029 5.679-1.026 10.099-4.353 13.899a20.16 20.16 0 0 1-3.551 3.198c-2.871 2.012-4.619.822-4.631-3.097-.012-4.305 1.225-8.119 3.751-11.234 1.858-2.293 3.905-4.38 6.136-6.856-.432-.29-1.021-.684-1.607-1.084-.876-.574-1.712-1.53-2.635-1.663-4.133-.598-7.711 1.603-11.306 3.528-.169.092 0 1.034.012 1.581 1.261 9.548-1.956 16.757-8.587 22.046-2.455 1.957-5.161 1.585-6.336-.974-.672-1.466-.833-3.552-.585-5.234.781-5.334 3.716-9.198 7.011-12.723.433-.464.884-.9 1.328-1.35 1.481-1.126 2.958-2.252 4.514-3.437-2.275-2.776-4.859-4.071-7.762-3.318-4.75 1.236-8.686 4.177-11.518 8.928-3.087 3.611-4.572 8.201-5.735 12.985L155 25.48c.204-1.402.208-2.9.656-4.186.727-2.077 1.776-4.002 2.624-6.024.271-.643.35-1.397.519-2.1.2-.362.396-.73.597-1.093l2.357-2.279Zm19.306-2.183c-2.796 2.698-5.644 4.917-7.903 7.77-2.357 2.982-4.486 6.387-4.415 10.872.067 4.075 2.137 5.463 5.181 3.413 4.341-2.917 6.548-7.746 8.01-13.007.754-2.698.872-5.68-.873-9.048Zm18.416.258c-3.457 2.37-6.148 5.288-7.853 9.373-1.064 2.555-1.826 5.16-1.52 8.078.189 1.8.943 2.228 2.247 1.438 4.737-2.867 10.363-10.058 7.126-18.89Zm20.564 1.314c-3.225 2.849-5.162 6.345-6.435 10.333-.224.699.275 2.39.719 2.546.684.244 1.795-.184 2.404-.776 3.147-3.07 3.524-7.265 3.312-12.103Z" fill="#3AA72F"/></svg>