<svg width="318" height="46" fill="none" xmlns="http://www.w3.org/2000/svg"><g clip-path="url(#a)"><path d="M202.756 1.544c-22.573.699-45.131 1.87-67.652 3.515L73.79 6.146c-22.425.399-44.85.794-67.27 1.193C4.35 7.376.99 8.97.657 11.375c-.366 2.653 2.916 3.097 4.764 3.067l43.715-.776c-6.065.772-12.122 1.574-18.179 2.413-2.099.292-5.03 1.275-5.698 3.57-.599 2.048 1.271 3.5 3.255 3.537 33.653.576 67.309 1.157 100.961 1.733 7.162.122 14.324.248 21.486.37a940.47 940.47 0 0 0-30.851 3.891 965.132 965.132 0 0 0-48.058 8.156c-1.722.337-4.165 1.845-4.427 3.777-.255 1.848 1.781 3.057 3.415 3.071 38.272.333 76.543.67 114.815 1.002 10.791.092 21.578.188 32.37.28 2.472.023 5.643-.683 6.888-3.111 1.113-2.173-.972-3.98-3.097-3.999l-110.524-.964c1.027-.155 2.051-.314 3.078-.466a932.444 932.444 0 0 1 126.198-10.008c1.245-.014 2.505-.022 3.762-.03 14.272.245 28.541.492 42.814.736 2.468.041 5.65-.698 6.888-3.111 1.138-2.218-.99-3.914-3.097-3.999a952.738 952.738 0 0 0-43.719-.75c-19.08-.33-38.161-.654-57.241-.983-33.652-.577-67.308-1.157-100.96-1.733-2.713-.048-5.429-.093-8.142-.14a1603.833 1603.833 0 0 1 52.944-4.75c36.841-.654 73.686-1.304 110.528-1.958 22.425-.4 44.85-.795 67.271-1.194 2.058-.037 5.081-1.449 5.698-3.57.606-2.073-1.278-3.463-3.255-3.537a1637.63 1637.63 0 0 0-111.504-.355Z" fill="#3AA72F"/></g><defs><clipPath id="a"><path fill="#fff" transform="translate(.63 .765)" d="M0 0h317.001v44.706H0z"/></clipPath></defs></svg>