<svg width="24" height="24" fill="none" xmlns="http://www.w3.org/2000/svg"><path d="M20.89 10.304a6.532 6.532 0 0 0-.125-2.551 6.47 6.47 0 0 0-1.708-3.01 6.47 6.47 0 0 0-3.009-1.707 6.534 6.534 0 0 0-2.55-.125m3.597 6.99a2.996 2.996 0 0 0-2.029-3.294 2.995 2.995 0 0 0-1.383-.117" stroke="#fff" stroke-width="2" stroke-linecap="round" stroke-linejoin="round"/><path d="M7.188 4.397a1 1 0 0 1 .874.515l1.223 2.203a1 1 0 0 1 .02.933l-1.178 2.357s.341 1.756 1.77 3.185c1.43 1.429 3.18 1.765 3.18 1.765l2.356-1.178a1 1 0 0 1 .933.02l2.21 1.229a1 1 0 0 1 .514.873v2.538c0 1.291-1.2 2.224-2.424 1.811-2.514-.848-6.416-2.463-8.89-4.937-2.473-2.473-4.088-6.376-4.937-8.89-.413-1.224.52-2.424 1.812-2.424h2.537Z" stroke="#fff" stroke-width="2" stroke-linejoin="round"/></svg>