<svg width="24" height="24" fill="none" xmlns="http://www.w3.org/2000/svg"><path d="M20.892 10.304a6.529 6.529 0 0 0-.125-2.551 6.47 6.47 0 0 0-1.707-3.01 6.47 6.47 0 0 0-3.009-1.707A6.534 6.534 0 0 0 13.5 2.91m3.598 6.99a2.994 2.994 0 0 0-.846-2.565 2.996 2.996 0 0 0-2.566-.846" stroke="#fff" stroke-width="2" stroke-linecap="round" stroke-linejoin="round"/><path d="M7.19 4.397a1 1 0 0 1 .874.515l1.223 2.203a1 1 0 0 1 .02.933L8.13 10.405s.341 1.756 1.77 3.185c1.43 1.429 3.18 1.765 3.18 1.765l2.356-1.179a1 1 0 0 1 .933.02l2.21 1.23a1 1 0 0 1 .514.873v2.537c0 1.292-1.2 2.225-2.424 1.812-2.514-.848-6.416-2.464-8.89-4.937-2.473-2.473-4.088-6.376-4.937-8.89-.413-1.224.52-2.424 1.812-2.424H7.19Z" stroke="#fff" stroke-width="2" stroke-linejoin="round"/></svg>