<svg width="24" height="24" fill="none" xmlns="http://www.w3.org/2000/svg"><g clip-path="url(#a)"><path d="M21.332 3.84H2.665a1.333 1.333 0 0 0-1.333 1.333v13.333a1.333 1.333 0 0 0 1.333 1.334h18.667a1.333 1.333 0 0 0 1.333-1.334V5.173a1.333 1.333 0 0 0-1.333-1.333Zm-1.027 14.666H3.772l4.667-4.826-.96-.927-4.814 4.98V6.187l8.287 8.246a1.334 1.334 0 0 0 1.88 0l8.5-8.453v11.666l-4.907-4.906-.94.94 4.82 4.826ZM3.54 5.173h16.713l-8.36 8.313L3.54 5.173Z" fill="#fff"/></g><defs><clipPath id="a"><path fill="#fff" d="M0 0h24v24H0z"/></clipPath></defs></svg>