<svg width="24" height="24" fill="none" xmlns="http://www.w3.org/2000/svg"><path d="M20.89 10.303a6.529 6.529 0 0 0-.125-2.55 6.469 6.469 0 0 0-1.707-3.01 6.47 6.47 0 0 0-3.009-1.708 6.534 6.534 0 0 0-2.551-.124m3.598 6.99a2.996 2.996 0 0 0-2.029-3.294 2.996 2.996 0 0 0-1.383-.117" stroke="#fff" stroke-width="2" stroke-linecap="round" stroke-linejoin="round"/><path d="M7.188 4.397a1 1 0 0 1 .874.515l1.223 2.203a1 1 0 0 1 .02.933l-1.178 2.357s.341 1.756 1.77 3.184c1.43 1.43 3.18 1.765 3.18 1.765l2.356-1.178a1 1 0 0 1 .933.02l2.21 1.229a1 1 0 0 1 .514.874v2.537c0 1.292-1.2 2.225-2.424 1.812-2.514-.849-6.416-2.464-8.89-4.937-2.473-2.473-4.088-6.376-4.937-8.89-.413-1.224.52-2.424 1.812-2.424h2.537Z" stroke="#fff" stroke-width="2" stroke-linejoin="round"/></svg>