<svg width="21" height="25" fill="none" xmlns="http://www.w3.org/2000/svg"><g clip-path="url(#a)"><path d="M15.208 12.326c.08.08.12.182.12.306s-.04.226-.12.305l-4.25 4.25a.414.414 0 0 1-.305.12.408.408 0 0 1-.3-.126.408.408 0 0 1-.125-.3v-2.55H5.552a.408.408 0 0 1-.298-.125.409.409 0 0 1-.127-.3v-2.55a.41.41 0 0 1 .127-.298.409.409 0 0 1 .298-.126h4.676v-2.55a.409.409 0 0 1 .425-.426.5.5 0 0 1 .318.133l4.237 4.237Zm1.275 3.932.485-.83c.323-.554.485-1.486.485-2.796 0-1.31-.323-2.52-.97-3.626a7.203 7.203 0 0 0-2.63-2.63 7.063 7.063 0 0 0-3.625-.97c-1.31 0-2.52.324-3.626.97a7.203 7.203 0 0 0-2.63 2.63 7.062 7.062 0 0 0-.97 3.626c0 1.31.324 2.519.97 3.626a7.203 7.203 0 0 0 2.63 2.63 7.062 7.062 0 0 0 3.626.969c1.31 0 2.519-.323 3.626-.97a7.203 7.203 0 0 0 2.63-2.63Zm2.577-8.746.684 1.172c.456.781.684 2.097.684 3.948 0 1.85-.456 3.557-1.368 5.12a10.154 10.154 0 0 1-3.712 3.712c-1.563.912-3.27 1.368-5.12 1.368-1.851 0-3.558-.456-5.12-1.368a10.154 10.154 0 0 1-3.713-3.712c-.912-1.563-1.368-3.27-1.368-5.12s.456-3.557 1.368-5.12c.912-1.563 2.15-2.8 3.713-3.712 1.562-.912 3.269-1.368 5.12-1.368 1.85 0 3.557.456 5.12 1.368 1.562.912 2.8 2.149 3.712 3.712Z" fill="#000"/></g><defs><clipPath id="a"><path fill="#fff" transform="matrix(1 0 0 -1 .021 24.533)" d="M0 0h20.409v23.801H0z"/></clipPath></defs></svg>