<svg width="22" height="25" fill="none" xmlns="http://www.w3.org/2000/svg"><g clip-path="url(#a)"><path d="M15.86 12.12c.08.079.12.18.12.305 0 .124-.04.225-.12.305l-4.25 4.25a.414.414 0 0 1-.305.12.408.408 0 0 1-.299-.126.408.408 0 0 1-.126-.3v-2.55H6.205A.409.409 0 0 1 5.906 14a.408.408 0 0 1-.126-.3v-2.55c0-.114.042-.214.126-.298a.409.409 0 0 1 .299-.126h4.675v-2.55a.412.412 0 0 1 .425-.426.5.5 0 0 1 .319.133l4.236 4.237Zm1.276 3.93.484-.83c.323-.553.485-1.485.485-2.795 0-1.31-.323-2.52-.97-3.626a7.203 7.203 0 0 0-2.63-2.63 7.062 7.062 0 0 0-3.625-.97c-1.31 0-2.52.324-3.626.97a7.203 7.203 0 0 0-2.63 2.63 7.062 7.062 0 0 0-.97 3.626c0 1.31.324 2.519.97 3.626a7.203 7.203 0 0 0 2.63 2.63 7.063 7.063 0 0 0 3.626.969c1.31 0 2.519-.323 3.626-.97a7.203 7.203 0 0 0 2.63-2.63Zm2.576-8.745.684 1.172c.456.781.684 2.097.684 3.948 0 1.85-.456 3.557-1.368 5.12A10.154 10.154 0 0 1 16 21.257c-1.563.912-3.27 1.368-5.12 1.368s-3.557-.456-5.12-1.368a10.154 10.154 0 0 1-3.712-3.712C1.136 15.982.68 14.275.68 12.425s.456-3.557 1.368-5.12c.912-1.563 2.15-2.8 3.712-3.712 1.563-.912 3.27-1.368 5.12-1.368s3.557.456 5.12 1.368a10.15 10.15 0 0 1 3.712 3.712Z" fill="#000"/></g><defs><clipPath id="a"><path fill="#fff" transform="matrix(1 0 0 -1 .674 24.324)" d="M0 0h20.409v23.801H0z"/></clipPath></defs></svg>