<svg width="22" height="25" fill="none" xmlns="http://www.w3.org/2000/svg"><g clip-path="url(#a)"><path d="M15.921 12.352c.08.08.12.181.12.305s-.04.226-.12.306l-4.25 4.25a.414.414 0 0 1-.305.12.408.408 0 0 1-.3-.127.408.408 0 0 1-.126-.299v-2.55H6.266a.408.408 0 0 1-.298-.126.408.408 0 0 1-.127-.299v-2.55c0-.115.042-.215.127-.299a.409.409 0 0 1 .298-.126h4.676v-2.55c0-.124.04-.226.119-.305.08-.08.181-.12.306-.12.106 0 .212.044.318.133l4.237 4.237Zm1.275 3.931.485-.83c.323-.553.485-1.485.485-2.796 0-1.31-.323-2.519-.97-3.626a7.203 7.203 0 0 0-2.63-2.63 7.062 7.062 0 0 0-3.626-.969c-1.31 0-2.519.323-3.625.97a7.203 7.203 0 0 0-2.63 2.63 7.062 7.062 0 0 0-.97 3.625c0 1.31.323 2.52.97 3.626a7.203 7.203 0 0 0 2.63 2.63 7.062 7.062 0 0 0 3.625.97c1.31 0 2.52-.324 3.626-.97a7.203 7.203 0 0 0 2.63-2.63Zm2.577-8.746.684 1.172c.456.782.684 2.098.684 3.948s-.456 3.557-1.368 5.12a10.154 10.154 0 0 1-3.712 3.712c-1.563.912-3.27 1.368-5.12 1.368-1.851 0-3.558-.456-5.12-1.368a10.154 10.154 0 0 1-3.713-3.712C1.196 16.214.74 14.507.74 12.657s.456-3.557 1.368-5.12c.912-1.563 2.15-2.8 3.712-3.712 1.563-.912 3.27-1.368 5.12-1.368 1.851 0 3.558.456 5.12 1.368 1.563.912 2.8 2.15 3.713 3.712Z" fill="#000"/></g><defs><clipPath id="a"><path fill="#fff" transform="matrix(1 0 0 -1 .736 24.557)" d="M0 0h20.409v23.801H0z"/></clipPath></defs></svg>