<svg width="21" height="24" fill="none" xmlns="http://www.w3.org/2000/svg"><g clip-path="url(#a)"><path d="M15.458 11.797c.08.08.12.181.12.305s-.04.226-.12.306l-4.25 4.25a.414.414 0 0 1-.305.12.408.408 0 0 1-.3-.127.408.408 0 0 1-.125-.298v-2.55H5.802a.408.408 0 0 1-.298-.127.409.409 0 0 1-.127-.299v-2.55c0-.115.043-.214.127-.298a.409.409 0 0 1 .298-.127h4.676v-2.55a.412.412 0 0 1 .425-.425.5.5 0 0 1 .318.133l4.237 4.237Zm1.275 3.931.485-.83c.323-.553.485-1.485.485-2.796 0-1.31-.323-2.519-.97-3.625a7.203 7.203 0 0 0-2.63-2.63 7.063 7.063 0 0 0-3.625-.97c-1.31 0-2.52.324-3.626.97a7.203 7.203 0 0 0-2.63 2.63 7.062 7.062 0 0 0-.97 3.625c0 1.31.324 2.52.97 3.626a7.203 7.203 0 0 0 2.63 2.63 7.062 7.062 0 0 0 3.626.97c1.31 0 2.519-.323 3.626-.97a7.203 7.203 0 0 0 2.63-2.63Zm2.577-8.746.684 1.173c.456.78.684 2.097.684 3.947 0 1.851-.456 3.558-1.368 5.12a10.154 10.154 0 0 1-3.712 3.713c-1.563.912-3.27 1.368-5.12 1.368-1.851 0-3.558-.456-5.12-1.368a10.154 10.154 0 0 1-3.713-3.712C.733 15.66.277 13.953.277 12.102c0-1.851.456-3.558 1.368-5.12.912-1.563 2.15-2.8 3.713-3.713 1.562-.912 3.269-1.368 5.12-1.368 1.85 0 3.557.456 5.12 1.368 1.562.912 2.8 2.15 3.712 3.712Z" fill="#000"/></g><defs><clipPath id="a"><path fill="#fff" transform="matrix(1 0 0 -1 .273 24.002)" d="M0 0h20.409v23.801H0z"/></clipPath></defs></svg>