<svg width="21" height="25" fill="none" xmlns="http://www.w3.org/2000/svg"><g clip-path="url(#a)"><path d="M15.392 11.936c.08.08.12.181.12.305s-.04.226-.12.306l-4.25 4.25a.414.414 0 0 1-.306.12.408.408 0 0 1-.299-.127.408.408 0 0 1-.126-.299v-2.55H5.736a.409.409 0 0 1-.299-.126.408.408 0 0 1-.126-.299v-2.55a.41.41 0 0 1 .126-.299.409.409 0 0 1 .3-.126h4.674v-2.55a.41.41 0 0 1 .425-.425.5.5 0 0 1 .319.133l4.237 4.237Zm1.275 3.931.485-.83c.323-.554.484-1.485.484-2.796 0-1.31-.323-2.519-.97-3.626a7.203 7.203 0 0 0-2.629-2.63 7.063 7.063 0 0 0-3.626-.969c-1.31 0-2.519.323-3.626.97a7.203 7.203 0 0 0-2.63 2.63 7.062 7.062 0 0 0-.969 3.625c0 1.31.323 2.52.97 3.626a7.203 7.203 0 0 0 2.63 2.63 7.063 7.063 0 0 0 3.625.97c1.31 0 2.52-.324 3.626-.97a7.204 7.204 0 0 0 2.63-2.63Zm2.576-8.746.684 1.172c.456.782.684 2.098.684 3.948s-.456 3.557-1.368 5.12a10.154 10.154 0 0 1-3.712 3.712c-1.563.912-3.27 1.368-5.12 1.368s-3.557-.456-5.12-1.368a10.154 10.154 0 0 1-3.712-3.712C.667 15.798.21 14.091.21 12.241s.456-3.557 1.368-5.12c.912-1.563 2.15-2.8 3.712-3.712 1.563-.912 3.27-1.368 5.12-1.368s3.557.456 5.12 1.368c1.563.912 2.8 2.15 3.712 3.712Z" fill="#000"/></g><defs><clipPath id="a"><path fill="#fff" transform="matrix(1 0 0 -1 .207 24.14)" d="M0 0h20.409v23.801H0z"/></clipPath></defs></svg>