<svg width="22" height="25" fill="none" xmlns="http://www.w3.org/2000/svg"><g clip-path="url(#a)"><path d="M16.054 12.002c.08.08.12.182.12.306 0 .123-.04.225-.12.305l-4.25 4.25a.414.414 0 0 1-.306.12.408.408 0 0 1-.298-.127.408.408 0 0 1-.127-.298v-2.55H6.398a.409.409 0 0 1-.299-.127.408.408 0 0 1-.126-.298v-2.55c0-.116.042-.215.126-.3a.409.409 0 0 1 .3-.126h4.674v-2.55a.412.412 0 0 1 .425-.425.5.5 0 0 1 .32.133l4.236 4.237Zm1.275 3.931.485-.83c.323-.553.485-1.485.485-2.795 0-1.31-.324-2.52-.97-3.626a7.203 7.203 0 0 0-2.63-2.63 7.063 7.063 0 0 0-3.626-.97c-1.31 0-2.519.324-3.626.97a7.203 7.203 0 0 0-2.63 2.63 7.062 7.062 0 0 0-.969 3.626c0 1.31.323 2.519.97 3.625a7.203 7.203 0 0 0 2.63 2.63 7.062 7.062 0 0 0 3.625.97c1.31 0 2.52-.323 3.626-.97a7.203 7.203 0 0 0 2.63-2.63Zm2.576-8.745s.229.39.684 1.172c.457.781.684 2.097.684 3.948 0 1.85-.456 3.557-1.367 5.12a10.154 10.154 0 0 1-3.713 3.712c-1.563.912-3.27 1.368-5.12 1.368s-3.557-.456-5.12-1.368a10.154 10.154 0 0 1-3.712-3.712c-.912-1.563-1.368-3.27-1.368-5.12 0-1.851.456-3.558 1.368-5.12.912-1.563 2.15-2.8 3.712-3.713 1.563-.912 3.27-1.368 5.12-1.368s3.557.456 5.12 1.368c1.563.912 2.8 2.15 3.712 3.713Z" fill="#000"/></g><defs><clipPath id="a"><path fill="#fff" transform="matrix(1 0 0 -1 .87 24.209)" d="M0 0h20.409v23.801H0z"/></clipPath></defs></svg>