<svg width="21" height="24" fill="none" xmlns="http://www.w3.org/2000/svg"><g clip-path="url(#a)"><path d="M15.52 11.633c.08.08.12.182.12.305 0 .124-.04.226-.12.306l-4.25 4.25a.414.414 0 0 1-.305.12.408.408 0 0 1-.299-.127.408.408 0 0 1-.126-.298v-2.55H5.865a.409.409 0 0 1-.299-.127.408.408 0 0 1-.126-.299v-2.55c0-.115.042-.214.126-.298a.408.408 0 0 1 .299-.127h4.675v-2.55a.412.412 0 0 1 .425-.425.5.5 0 0 1 .319.133l4.237 4.237Zm1.276 3.931.485-.83c.323-.553.484-1.485.484-2.796 0-1.31-.323-2.519-.97-3.625a7.203 7.203 0 0 0-2.629-2.63 7.063 7.063 0 0 0-3.626-.97c-1.31 0-2.519.323-3.626.97a7.203 7.203 0 0 0-2.63 2.63 7.062 7.062 0 0 0-.97 3.625c0 1.31.324 2.52.97 3.626a7.202 7.202 0 0 0 2.63 2.63 7.062 7.062 0 0 0 3.626.97c1.31 0 2.52-.324 3.626-.97a7.202 7.202 0 0 0 2.63-2.63Zm2.576-8.746.684 1.172c.456.782.684 2.098.684 3.948 0 1.851-.456 3.558-1.368 5.12a10.154 10.154 0 0 1-3.712 3.713c-1.563.912-3.27 1.368-5.12 1.368s-3.557-.456-5.12-1.368a10.154 10.154 0 0 1-3.712-3.713C.796 15.496.34 13.79.34 11.938c0-1.85.456-3.557 1.368-5.12.912-1.562 2.15-2.8 3.712-3.712 1.563-.912 3.27-1.368 5.12-1.368s3.557.456 5.12 1.368c1.563.912 2.8 2.15 3.712 3.712Z" fill="#000"/></g><defs><clipPath id="a"><path fill="#fff" transform="matrix(1 0 0 -1 .336 23.838)" d="M0 0h20.409v23.801H0z"/></clipPath></defs></svg>