<svg width="56" height="51" fill="none" xmlns="http://www.w3.org/2000/svg"><g clip-path="url(#a)"><path d="M18.592 13.87c.057-.577.4-1.073.917-1.327 7.985-3.923 12.85 3.266 13.427 4.18l.742.733v-3.029c-1.656-.03-3.633-1.502-5.655-4.28-1.99-2.735-1.165-6.966-.164-8.468.47-.705 1.154-1.087 1.977-1.104 1.782-.018 3.87 1.69 5.128 3.417.92 1.264 1.594 3.254 1.759 5.193.056.664.073 1.599-.121 2.5.221-.6.527-1.264.919-1.992 2.502-4.648 5.15-5.676 6.505-5.875 1.006-.148 1.915.074 2.434.592 1.238 1.238-.184 3.724-.369 4.033-.118.206-1.986 3.416-4.81 5.769-.97.81-2.219 1.405-3.254 1.405a2.17 2.17 0 0 1-.705-.111L34.94 19.26v3.455l1.329-2.658a.639.639 0 0 1 .145-.189c1.746-2.85 4.571-4.896 5.579-5.568a8.398 8.398 0 0 1 4.14-1.381 6.617 6.617 0 0 1 5.243 2.074c.27.287.41.663.39 1.058-.02.392-.2.763-.496 1.02-3.543 3.07-6.289 3.706-8.944 4.32-.848.197-1.648.382-2.48.645-3.067.97-3.624 1.194-3.706 1.23a.617.617 0 0 1-.081.034l-1.044 2.088h6.868a.633.633 0 0 1 .623.732l-1.835 11.361-.408 2.524a.631.631 0 0 1-.623.531H28.817a.631.631 0 0 1-.624-.53l-.407-2.525-1.835-11.36a.633.633 0 0 1 .623-.732h7.104V19.23l-1.372-1.354c-1.432.566-2.83.796-4.152.796-4.044 0-7.39-2.136-8.906-3.294a1.68 1.68 0 0 1-.656-1.508Zm16.873-4.578c-.144-1.696-.741-3.485-1.521-4.557-1.228-1.687-2.924-2.898-4.05-2.898h-.032c-.409.01-.712.181-.952.543-.84 1.259-1.426 4.882.134 7.024.837 1.15 3.711 4.803 5.525 3.483.708-.516 1.044-1.86.896-3.595Zm2.143 4.956c.396.322 1.706-.038 2.866-1.005 2.677-2.23 4.507-5.4 4.525-5.432l.006-.01c.48-.803.942-2.119.562-2.498-.112-.113-.419-.268-.931-.268-.129 0-.271.01-.426.033-.903.132-3.253.906-5.578 5.224-1.415 2.627-1.309 3.723-1.023 3.956Zm-1.326.542a.618.618 0 0 1 .095-.115c-.252-.516-.268-1.216-.053-2.093-.22.519-.544.985-1.012 1.325a2.81 2.81 0 0 1-.372.23v2.767l1.342-2.114Zm.604 6.876c.579-.193 1.402-.46 2.58-.833.878-.278 1.742-.477 2.576-.67 2.62-.607 5.095-1.18 8.4-4.046a.181.181 0 0 0 .016-.258 5.368 5.368 0 0 0-4.247-1.68 7.135 7.135 0 0 0-3.518 1.172c-1.03.686-4.101 2.91-5.61 5.902l-.073.146a8.989 8.989 0 0 0-.124.267Zm-7.532 17.608h9.749l.204-1.262H29.15l.204 1.262Zm-.408-2.525h10.565l1.63-10.098H27.316l1.631 10.098Zm-8.931-22.374c2.211 1.69 6.536 4.16 11.371 2.495a.637.637 0 0 1-.035-.214c-.522-.685-1.406-1.691-2.611-2.521-2.656-1.828-5.574-1.982-8.674-.46a.386.386 0 0 0-.217.318.422.422 0 0 0 .166.382Z" fill="#FAFF1C"/></g><g clip-path="url(#b)" fill="#FAFF1C"><path d="M30.707 43.117h-7.923a.116.116 0 0 1-.116-.116v-1.354c0-.064.051-.116.115-.116h6.698c.064 0 .116.052.116.116v.587a.23.23 0 0 0 .459 0v-.587a.575.575 0 0 0-.575-.575h-3.22a26.258 26.258 0 0 0-6.142-13.983.493.493 0 0 0 .184-.386v-.737a.496.496 0 0 0-.288-.45l2.326-2.535a1.5 1.5 0 0 0 .315-1.525 1.498 1.498 0 0 0-1.195-1l-1.025-.163.166-.361a1.076 1.076 0 0 0-.01-.919 1.08 1.08 0 0 0-.712-.579l-.575-.142a16.625 16.625 0 0 0-7.982.006l-.54.135a1.076 1.076 0 0 0-.72 1.497l.166.364-1.026.163a1.495 1.495 0 0 0-1.195 1 1.495 1.495 0 0 0 .315 1.525l2.326 2.534a.497.497 0 0 0-.288.45v.738c0 .151.068.291.185.386A26.378 26.378 0 0 0 4.21 44.242v2.292a3.177 3.177 0 0 0 3.174 3.174h13.881a.23.23 0 0 0 0-.459H7.382a2.718 2.718 0 0 1-2.715-2.715v-2.292c0-6.288 2.28-12.35 6.423-17.084a17.592 17.592 0 0 1 8.482 0 25.804 25.804 0 0 1 6.227 13.915h-3.015a.575.575 0 0 0-.574.575V43c0 .318.257.575.574.575h.651v1.586h-.65a.575.575 0 0 0-.575.574v3.398c0 .317.257.575.574.575h6.698a.575.575 0 0 0 .574-.575V45.62h.651a.575.575 0 0 0 .575-.575v-1.353a.576.576 0 0 0-.575-.575Zm-12.4-17.506c.507.085 1.01.19 1.51.318a.04.04 0 0 1 .028.037v.738a.036.036 0 0 1-.015.03.037.037 0 0 1-.033.007c-.324-.084-.65-.157-.978-.221a1.503 1.503 0 0 0-.512-.909Zm-9.868-4.005c.13-.374.442-.635.834-.697l1.152-.184 1.317 2.875a.23.23 0 1 0 .417-.19l-1.681-3.672a.619.619 0 0 1 .414-.861l.54-.135a16.163 16.163 0 0 1 7.761-.007l.575.143a.619.619 0 0 1 .415.86l-2.127 4.646a.23.23 0 0 0 .208.325.23.23 0 0 0 .209-.134l1.763-3.85 1.151.182c.392.063.704.323.834.698.13.375.049.773-.22 1.065l-2.488 2.713a18.603 18.603 0 0 0-8.367 0L8.657 22.67a1.044 1.044 0 0 1-.218-1.064Zm21.158 27.527a.116.116 0 0 1-.116.116h-6.697a.116.116 0 0 1-.116-.116v-1.47h6.93v1.47Zm0-1.928h-6.929v-1.47c0-.063.052-.115.116-.115h6.814v1.585Zm1.226-2.16a.116.116 0 0 1-.116.116h-6.814v-1.586h6.813c.064 0 .116.051.116.116v1.354Z" stroke="#FAFF1C" stroke-width=".714"/><path d="M15.331 31.095a6.884 6.884 0 1 0 0 13.767 6.884 6.884 0 0 0 0-13.767Zm.56 10.658v.95a.083.083 0 0 1-.084.084h-.953a.083.083 0 0 1-.083-.084v-.944a2.066 2.066 0 0 1-1.99-1.976.083.083 0 0 1 .083-.086h.954a.08.08 0 0 1 .082.075c.038.486.447.87.942.87h.87c.596 0 1.08-.5 1.05-1.104-.028-.565-.516-1-1.081-1h-.686c-1.195 0-2.2-.945-2.217-2.14a2.174 2.174 0 0 1 1.992-2.194v-.95c0-.046.038-.083.084-.083h.953c.045 0 .083.037.083.083v.944a2.067 2.067 0 0 1 1.99 1.977.083.083 0 0 1-.083.085h-.954a.082.082 0 0 1-.083-.074.946.946 0 0 0-.942-.87h-.868c-.598 0-1.08.5-1.05 1.105.027.565.515.999 1.08.999h.685c1.195 0 2.2.946 2.217 2.14a2.172 2.172 0 0 1-1.992 2.193Zm-9.996 2.002v1.983a2.382 2.382 0 0 0 2.381 2.382h4.518c1.125 0 1.516-1.494.537-2.046l-5.806-3.271a1.093 1.093 0 0 0-1.63.952Z"/></g><defs><clipPath id="a"><path fill="#fff" transform="matrix(-1 0 0 1 55.209 .575)" d="M0 0h39.961v39.961H0z"/></clipPath><clipPath id="b"><path fill="#fff" transform="translate(.977 16.988)" d="M0 0h33.538v33.538H0z"/></clipPath></defs></svg>