<svg width="21" height="25" fill="none" xmlns="http://www.w3.org/2000/svg"><g clip-path="url(#a)"><path d="M15.439 12.21c.08.079.12.18.12.305 0 .124-.04.225-.12.305l-4.25 4.25a.413.413 0 0 1-.306.12.408.408 0 0 1-.299-.127.408.408 0 0 1-.126-.298v-2.55H5.783a.408.408 0 0 1-.299-.127.409.409 0 0 1-.126-.298v-2.55c0-.116.042-.215.126-.3a.408.408 0 0 1 .299-.125h4.675v-2.55a.412.412 0 0 1 .425-.426c.106 0 .213.045.319.133l4.237 4.237Zm1.275 3.93.485-.83c.323-.553.484-1.485.484-2.795 0-1.31-.323-2.52-.97-3.626a7.203 7.203 0 0 0-2.63-2.63 7.062 7.062 0 0 0-3.625-.97c-1.31 0-2.519.324-3.626.97a7.203 7.203 0 0 0-2.63 2.63 7.062 7.062 0 0 0-.97 3.626c0 1.31.324 2.519.97 3.625a7.203 7.203 0 0 0 2.63 2.63 7.062 7.062 0 0 0 3.626.97c1.31 0 2.52-.323 3.626-.97a7.203 7.203 0 0 0 2.63-2.63Zm2.576-8.745.684 1.172c.456.781.684 2.097.684 3.948 0 1.85-.456 3.557-1.368 5.12a10.154 10.154 0 0 1-3.712 3.712c-1.563.912-3.27 1.368-5.12 1.368s-3.557-.456-5.12-1.368a10.154 10.154 0 0 1-3.712-3.712c-.912-1.563-1.368-3.27-1.368-5.12 0-1.851.456-3.558 1.368-5.12.912-1.563 2.15-2.8 3.712-3.713 1.563-.912 3.27-1.368 5.12-1.368s3.557.456 5.12 1.368c1.563.912 2.8 2.15 3.712 3.713Z" fill="#000"/></g><defs><clipPath id="a"><path fill="#fff" transform="matrix(1 0 0 -1 .254 24.414)" d="M0 0h20.409v23.801H0z"/></clipPath></defs></svg>