<svg width="38" height="38" fill="none" xmlns="http://www.w3.org/2000/svg"><g clip-path="url(#a)" fill="#fff"><path d="M19.134 3.969c4.862 0 5.438.021 7.35.106 1.778.079 2.738.377 3.378.626a5.628 5.628 0 0 1 2.09 1.358c.64.64 1.03 1.244 1.358 2.09.248.64.547 1.607.625 3.377.086 1.92.107 2.495.107 7.351 0 4.863-.021 5.439-.107 7.351-.078 1.778-.377 2.737-.625 3.377a5.628 5.628 0 0 1-1.358 2.09 5.596 5.596 0 0 1-2.09 1.358c-.64.25-1.607.548-3.377.626-1.92.085-2.496.106-7.351.106-4.863 0-5.44-.02-7.351-.106-1.778-.078-2.738-.377-3.377-.626a5.627 5.627 0 0 1-2.09-1.358 5.598 5.598 0 0 1-1.359-2.09c-.248-.64-.547-1.607-.625-3.377-.085-1.92-.107-2.495-.107-7.35 0-4.864.022-5.44.107-7.352.078-1.777.377-2.737.625-3.377a5.629 5.629 0 0 1 1.358-2.09A5.598 5.598 0 0 1 8.405 4.7c.64-.249 1.607-.547 3.378-.626 1.912-.085 2.488-.106 7.35-.106Zm0-3.278c-4.941 0-5.56.022-7.5.107-1.935.085-3.264.398-4.416.846C6.017 2.114 5 2.732 3.991 3.748c-1.017 1.01-1.636 2.027-2.105 3.22-.448 1.16-.76 2.482-.846 4.416C.955 13.332.934 13.95.934 18.89s.02 5.56.106 7.5c.086 1.935.398 3.264.846 4.416.47 1.201 1.088 2.218 2.105 3.227a8.895 8.895 0 0 0 3.22 2.098c1.159.448 2.481.76 4.415.846 1.941.085 2.56.106 7.5.106 4.941 0 5.56-.021 7.5-.106 1.935-.086 3.264-.398 4.416-.846a8.896 8.896 0 0 0 3.22-2.098 8.896 8.896 0 0 0 2.098-3.22c.447-1.16.76-2.481.846-4.415.085-1.941.106-2.56.106-7.5 0-4.942-.021-5.56-.106-7.5-.086-1.935-.399-3.264-.846-4.416a8.525 8.525 0 0 0-2.083-3.235 8.897 8.897 0 0 0-3.221-2.097c-1.159-.448-2.481-.76-4.415-.846C24.693.712 24.075.69 19.134.69Z"/><path d="M19.134 9.543c-5.161 0-9.349 4.187-9.349 9.349 0 5.161 4.188 9.349 9.349 9.349 5.161 0 9.349-4.188 9.349-9.35 0-5.16-4.188-9.348-9.349-9.348Zm0 15.413a6.065 6.065 0 1 1 .002-12.13 6.065 6.065 0 0 1-.002 12.13ZM31.033 9.173A2.183 2.183 0 1 1 28.85 6.99c1.202 0 2.183.981 2.183 2.183Z"/></g><defs><clipPath id="a"><path fill="#fff" transform="translate(.934 .691)" d="M0 0h36.4v36.4H0z"/></clipPath></defs></svg>