<svg width="38" height="38" fill="none" xmlns="http://www.w3.org/2000/svg"><g clip-path="url(#a)"><path d="M12.318 33.679c13.733 0 21.246-11.38 21.246-21.246 0-.32-.007-.647-.021-.967A15.168 15.168 0 0 0 37.267 7.6a14.725 14.725 0 0 1-4.286 1.173 7.509 7.509 0 0 0 3.284-4.13 15.012 15.012 0 0 1-4.74 1.812 7.477 7.477 0 0 0-12.731 6.81 21.21 21.21 0 0 1-15.39-7.797 7.476 7.476 0 0 0 2.311 9.965 7.477 7.477 0 0 1-3.383-.931v.092a7.465 7.465 0 0 0 5.991 7.323 7.422 7.422 0 0 1-3.369.128 7.483 7.483 0 0 0 6.973 5.19 14.978 14.978 0 0 1-11.06 3.09 21.186 21.186 0 0 0 11.451 3.354Z" fill="#fff"/></g><defs><clipPath id="a"><path fill="#fff" transform="translate(.867 .691)" d="M0 0h36.4v36.4H0z"/></clipPath></defs></svg>