<svg width="84" height="31" fill="none" xmlns="http://www.w3.org/2000/svg"><path d="M6.753 8.799c3.55-3.924 7.475-7.002 12.558-7.246 2.451-.12 4.517 1.07 6.442 2.794.519.464 1.489.625 2.137.427 3.32-1.02 6.568-2.376 9.915-3.24 1.316-.34 2.812.28 4.23.46 1.756 2.546 3.45 3.014 6.191 1.227C51.95.79 56.165-.165 60.541 1.07c2.247.634 3.877 2.03 4.867 4.259 3.06-1.231 6.061-2.72 9.188-3.625C77.616.827 80.763.547 83.859 0L84 .956c-1.017.206-2.05.354-3.052.638-4.101 1.154-8.21 2.284-12.287 3.548-1.918.597-2.687 1.984-2.487 4.562.33 4.209-.534 8.174-3.308 11.244-1.37 1.52-3.488 2.109-4.458 1.263-1.1-.96-1.56-3.722-.542-5.504a84.477 84.477 0 0 1 5.413-8.294c1.32-1.783 1.48-2.913-.145-4.48C60.01.923 56.4 1.277 52.874 2.398c-2.495.79-4.852 2.174-7.417 3.36.365 1.41.73 2.526.939 3.68 1.029 5.679-1.026 10.099-4.353 13.899a20.184 20.184 0 0 1-3.55 3.198c-2.872 2.012-4.62.822-4.632-3.097-.012-4.305 1.225-8.119 3.751-11.234 1.858-2.293 3.905-4.38 6.136-6.856-.432-.29-1.021-.684-1.607-1.084-.876-.574-1.712-1.53-2.635-1.663-4.133-.598-7.711 1.603-11.306 3.528-.169.092 0 1.034.012 1.581 1.261 9.548-1.956 16.757-8.587 22.046-2.455 1.957-5.162 1.585-6.336-.974-.672-1.466-.833-3.552-.585-5.234.781-5.334 3.716-9.198 7.011-12.723.433-.464.884-.9 1.328-1.35 1.481-1.126 2.958-2.252 4.514-3.437-2.275-2.776-4.86-4.071-7.762-3.318-4.75 1.236-8.686 4.177-11.518 8.928C3.19 15.259 1.705 19.849.542 24.633L0 24.48c.204-1.402.208-2.9.656-4.186.727-2.077 1.776-4.002 2.624-6.024.271-.643.35-1.397.519-2.1.2-.362.396-.73.597-1.093.785-.758 1.57-1.52 2.357-2.279Zm19.306-2.183c-2.796 2.698-5.644 4.917-7.903 7.77-2.357 2.982-4.486 6.387-4.415 10.872.066 4.075 2.137 5.463 5.181 3.413 4.34-2.917 6.548-7.746 8.01-13.007.754-2.698.872-5.68-.872-9.048Zm18.416.258c-3.457 2.37-6.148 5.288-7.853 9.373-1.064 2.555-1.826 5.16-1.52 8.078.189 1.8.943 2.228 2.247 1.438 4.737-2.867 10.363-10.058 7.126-18.89Zm20.564 1.314c-3.225 2.849-5.162 6.345-6.435 10.333-.224.699.275 2.39.72 2.546.683.244 1.794-.184 2.403-.776 3.147-3.07 3.524-7.265 3.312-12.103Z" fill="#3AA72F"/></svg>